# xmcd CD database file
#
# Track frame offsets:
#	150
#	18160
#	35279
#	54182
#	79075
#	105529
#	121171
#	135754
#	158892
#	177405
#	192490
#	219584
#
# Disc length: 3267 seconds
#
# Revision: 1
# Processed by: cddbd v1.5.2PL0 Copyright (c) Steve Scherf et al.
# Submitted via: CDex 1.51
#
DISCID=900cc10c
DTITLE=Stonehenge - Blues and Strandgut
DYEAR=1998
DGENRE=Blues
TTITLE0=Kalter Rauch
TTITLE1=Hau ab
TTITLE2=Strandgut
TTITLE3=Sex aus Singapur
TTITLE4=Kino
TTITLE5=Die Tretmühle
TTITLE6=Der Zug
TTITLE7=Ich steig' aus
TTITLE8=Schmacht
TTITLE9=Venusfalle
TTITLE10=Arsch mit Ohren
TTITLE11=Qualm
EXTD=www.bluesband.de YEAR: 1998
EXTT0=
EXTT1=
EXTT2=
EXTT3=
EXTT4=
EXTT5=
EXTT6=
EXTT7=
EXTT8=
EXTT9=
EXTT10=
EXTT11=
PLAYORDER=
